<svg width="184" height="184" viewBox="0 0 184 184" fill="none" xmlns="http://www.w3.org/2000/svg">
<path d="M42 65L44.2451 71.9098H51.5106L45.6327 76.1803L47.8779 83.0902L42 78.8197L36.1221 83.0902L38.3673 76.1803L32.4894 71.9098H39.7549L42 65Z" fill="#57546F"/>
<path d="M92 40L94.2451 46.9098H101.511L95.6327 51.1803L97.8779 58.0902L92 53.8197L86.1221 58.0902L88.3673 51.1803L82.4894 46.9098H89.7549L92 40Z" fill="#57546F"/>
<path d="M87 99L90.3677 109.365H101.266L92.4491 115.771L95.8168 126.135L87 119.729L78.1832 126.135L81.5509 115.771L72.7342 109.365H83.6323L87 99Z" fill="#57546F"/>
<path d="M148 114L151.368 124.365H162.266L153.449 130.771L156.817 141.135L148 134.729L139.183 141.135L142.551 130.771L133.734 124.365H144.632L148 114Z" fill="#57546F"/>
</svg>
