<svg width="42" height="41" viewBox="0 0 42 41" fill="none" xmlns="http://www.w3.org/2000/svg">
<g clip-path="url(#clip0_18848_3708)">
<rect width="41.1737" height="40.908" rx="3.54182" fill="#FAFAFA"/>
<path d="M26.9318 11.8799C25.7752 12.2798 25.0727 12.7554 23.7324 14.0525L22.4786 15.263L16.5013 14.6037L10.524 13.9444L9.34589 15.1225C8.69736 15.771 8.20016 16.3331 8.2434 16.3655C8.28663 16.4088 10.0917 17.0573 12.2643 17.8247C14.4368 18.5813 16.6202 19.3488 17.1174 19.5325L18.0145 19.8568L15.334 22.5373L12.6426 25.2287H10.751H8.84869L8.39472 25.6935C8.03803 26.061 7.96237 26.1907 8.07046 26.2772C8.14612 26.3312 9.20538 26.9041 10.4268 27.5418L12.6426 28.6875L13.8315 30.9033C14.4909 32.1247 15.0745 33.1191 15.1286 33.1191C15.1934 33.1191 15.4312 32.9354 15.6474 32.7084L16.0473 32.2977V30.5034V28.7092L18.7063 26.0718C20.1655 24.6342 21.3869 23.4345 21.4301 23.4129C21.4733 23.402 22.2516 25.5422 23.1703 28.1687C24.0891 30.8061 24.8781 33.0002 24.9322 33.0651C24.9862 33.1191 25.4726 32.7192 26.1535 32.0383C27.1371 31.0547 27.2885 30.8601 27.2885 30.5467C27.2885 30.3521 26.9966 27.6391 26.6399 24.5045L25.9914 18.8191L27.2668 17.5113C28.9746 15.7494 29.6664 14.4308 29.6664 12.9391C29.6664 12.3122 29.634 12.2041 29.3529 11.9231C29.0719 11.6421 28.9638 11.6097 28.3477 11.6097C27.9046 11.6097 27.4074 11.7069 26.9318 11.8799Z" fill="white"/>
<path d="M26.9318 11.8799C25.7752 12.2798 25.0727 12.7554 23.7324 14.0525L22.4786 15.263L16.5013 14.6037L10.524 13.9444L9.34589 15.1225C8.69736 15.771 8.20016 16.3331 8.2434 16.3655C8.28663 16.4088 10.0917 17.0573 12.2643 17.8247C14.4368 18.5813 16.6202 19.3488 17.1174 19.5325L18.0145 19.8568L15.334 22.5373L12.6426 25.2287H10.751H8.84869L8.39472 25.6935C8.03803 26.061 7.96237 26.1907 8.07046 26.2772C8.14612 26.3312 9.20538 26.9041 10.4268 27.5418L12.6426 28.6875L13.8315 30.9033C14.4909 32.1247 15.0745 33.1191 15.1286 33.1191C15.1934 33.1191 15.4312 32.9354 15.6474 32.7084L16.0473 32.2977V30.5034V28.7092L18.7063 26.0718C20.1655 24.6342 21.3869 23.4345 21.4301 23.4129C21.4733 23.402 22.2516 25.5422 23.1703 28.1687C24.0891 30.8061 24.8781 33.0002 24.9322 33.0651C24.9862 33.1191 25.4726 32.7192 26.1535 32.0383C27.1371 31.0547 27.2885 30.8601 27.2885 30.5467C27.2885 30.3521 26.9966 27.6391 26.6399 24.5045L25.9914 18.8191L27.2668 17.5113C28.9746 15.7494 29.6664 14.4308 29.6664 12.9391C29.6664 12.3122 29.634 12.2041 29.3529 11.9231C29.0719 11.6421 28.9638 11.6097 28.3477 11.6097C27.9046 11.6097 27.4074 11.7069 26.9318 11.8799Z" fill="url(#paint0_linear_18848_3708)"/>
<circle cx="37.5212" cy="4.31602" r="6.08751" fill="white"/>
<circle cx="37.5212" cy="4.31602" r="6.08751" fill="url(#paint1_linear_18848_3708)"/>
<circle cx="7.85843" cy="33.0933" r="3.43114" fill="white"/>
<circle cx="1.54961" cy="38.7391" r="2.87773" fill="white"/>
<circle cx="1.54961" cy="38.7391" r="2.87773" fill="url(#paint2_linear_18848_3708)"/>
</g>
<defs>
<linearGradient id="paint0_linear_18848_3708" x1="8.89763" y1="33.1191" x2="29.6741" y2="11.5938" gradientUnits="userSpaceOnUse">
<stop stop-color="#1219D2"/>
<stop offset="1" stop-color="#4E52B1"/>
</linearGradient>
<linearGradient id="paint1_linear_18848_3708" x1="31.9246" y1="-1.77148" x2="43.6871" y2="10.3406" gradientUnits="userSpaceOnUse">
<stop stop-color="#1219D2"/>
<stop offset="1" stop-color="#4E52B1"/>
</linearGradient>
<linearGradient id="paint2_linear_18848_3708" x1="-1.09604" y1="35.8613" x2="4.46438" y2="41.587" gradientUnits="userSpaceOnUse">
<stop stop-color="#1219D2"/>
<stop offset="1" stop-color="#4E52B1"/>
</linearGradient>
<clipPath id="clip0_18848_3708">
<rect width="41.1737" height="40.908" rx="3.54182" fill="white"/>
</clipPath>
</defs>
</svg>
